<svg width="512" height="512" viewBox="0 0 512 512" fill="none" xmlns="http://www.w3.org/2000/svg">
<g clip-path="url(#clip0_22_8)">
<rect width="512" height="512" rx="256" fill="#1E1E2E"/>
<path d="M60.033 284.489C62.6728 336.992 78.7314 353.295 86.4308 354.884H153.892L166.724 327.019C157.045 290.062 162.691 247.826 166.724 231.327L153.892 204.563L131.894 203.463L127.861 195.397H80.9313C63.3327 205.663 56.9777 221.428 56 228.027V284.489H60.033Z" fill="#BAC2DE"/>
<path d="M451.967 284.489C449.327 336.992 433.269 353.295 425.569 354.884H358.108L345.276 327.019C354.955 290.062 349.309 247.826 345.276 231.327L358.108 204.563L380.106 203.463L384.139 195.397H431.069C448.667 205.663 455.022 221.428 456 228.027V284.489H451.967Z" fill="#BAC2DE"/>
<path d="M211.82 327.019H166.357C159.025 300.255 160.125 261.758 166.357 231.694H211.82L215.853 221.061H296.147V338.385H215.853L211.82 327.019Z" fill="#BAC2DE"/>
<path d="M300.18 327.019H345.643C352.975 300.255 351.875 261.758 345.643 231.694H300.18L296.147 221.061H215.853V338.385H296.147L300.18 327.019Z" fill="#BAC2DE"/>
<path d="M255.817 158C164.011 158 118.573 182.931 107.329 195.397H123.094C165.624 171.932 229.297 168.021 255.817 168.999V158Z" fill="#BAC2DE"/>
<path d="M255.817 158C347.622 158 393.061 182.931 404.304 195.397H388.539C346.009 171.932 282.337 168.021 255.817 168.999V158Z" fill="#BAC2DE"/>
<path d="M93.9699 301.191L93.9446 301.199L93.9194 301.207C88.3312 302.926 84.5 308.086 84.5 314V348.541C72.2674 349.205 60.5 357.928 60.5 371C60.5 384.847 73.3134 393.5 86 393.5C98.6866 393.5 111.5 384.847 111.5 371V337.576L144.5 327.65V336.541C132.267 337.205 120.5 345.928 120.5 359C120.5 372.847 133.313 381.5 146 381.5C158.687 381.5 171.5 372.847 171.5 359V296C171.5 291.51 169.238 287.694 166.062 285.313C162.633 282.74 158.096 281.954 153.97 283.191L93.9699 301.191Z" fill="#89B4FA" stroke="#1E1E2E" stroke-width="15"/>
<path d="M373.97 158.191L373.945 158.199L373.919 158.207C368.331 159.926 364.5 165.086 364.5 171V205.541C352.267 206.205 340.5 214.928 340.5 228C340.5 241.847 353.313 250.5 366 250.5C378.687 250.5 391.5 241.847 391.5 228V194.576L424.5 184.65V193.541C412.267 194.205 400.5 202.928 400.5 216C400.5 229.847 413.313 238.5 426 238.5C438.687 238.5 451.5 229.847 451.5 216V153C451.5 148.51 449.238 144.694 446.062 142.313C442.633 139.74 438.096 138.954 433.97 140.191L373.97 158.191Z" fill="#FAB387" stroke="#1E1E2E" stroke-width="15"/>
<rect width="512" height="512" rx="256" stroke="#CDD6F4" stroke-width="30"/>
</g>
<defs>
<clipPath id="clip0_22_8">
<rect width="512" height="512" rx="256" fill="white"/>
</clipPath>
</defs>
</svg>
