<svg width="1380" height="222" viewBox="0 0 1380 222" fill="none" xmlns="http://www.w3.org/2000/svg">
<path d="M113.976 160.8C105.476 160.8 97.9758 158.75 91.4758 154.65C84.9758 150.45 79.8758 144.55 76.1758 136.95C72.5758 129.25 70.7758 120.1 70.7758 109.5C70.7758 98.9 72.5758 89.85 76.1758 82.35C79.8758 74.85 84.9758 69.1 91.4758 65.1C97.9758 61.1 105.476 59.1 113.976 59.1C122.576 59.1 130.126 61.1 136.626 65.1C143.126 69.1 148.176 74.85 151.776 82.35C155.476 89.85 157.326 98.9 157.326 109.5C157.326 120.1 155.476 129.25 151.776 136.95C148.176 144.55 143.126 150.45 136.626 154.65C130.126 158.75 122.576 160.8 113.976 160.8ZM113.976 145.65C121.676 145.65 127.826 142.4 132.426 135.9C137.026 129.3 139.326 120.5 139.326 109.5C139.326 98.5 137.026 89.9 132.426 83.7C127.826 77.4 121.676 74.25 113.976 74.25C106.276 74.25 100.126 77.4 95.5258 83.7C90.9258 89.9 88.6258 98.5 88.6258 109.5C88.6258 120.5 90.9258 129.3 95.5258 135.9C100.126 142.4 106.276 145.65 113.976 145.65ZM211.15 160.8C204.15 160.8 197.45 157.6 191.05 151.2H190.6L189.1 159H175.45V53.1H192.7V80.4L192.25 92.7C195.35 90 198.75 87.8 202.45 86.1C206.15 84.4 209.85 83.55 213.55 83.55C222.75 83.55 229.9 86.95 235 93.75C240.1 100.55 242.65 109.6 242.65 120.9C242.65 129.3 241.15 136.5 238.15 142.5C235.15 148.4 231.25 152.95 226.45 156.15C221.75 159.25 216.65 160.8 211.15 160.8ZM207.55 146.55C212.45 146.55 216.55 144.4 219.85 140.1C223.15 135.8 224.8 129.5 224.8 121.2C224.8 113.8 223.55 108.05 221.05 103.95C218.55 99.85 214.5 97.8 208.9 97.8C203.7 97.8 198.3 100.55 192.7 106.05V140.4C195.3 142.6 197.85 144.2 200.35 145.2C202.95 146.1 205.35 146.55 207.55 146.55ZM295.671 160.8C288.671 160.8 281.971 157.6 275.571 151.2H275.121L273.621 159H259.971V53.1H277.221V80.4L276.771 92.7C279.871 90 283.271 87.8 286.971 86.1C290.671 84.4 294.371 83.55 298.071 83.55C307.271 83.55 314.421 86.95 319.521 93.75C324.621 100.55 327.171 109.6 327.171 120.9C327.171 129.3 325.671 136.5 322.671 142.5C319.671 148.4 315.771 152.95 310.971 156.15C306.271 159.25 301.171 160.8 295.671 160.8ZM292.071 146.55C296.971 146.55 301.071 144.4 304.371 140.1C307.671 135.8 309.321 129.5 309.321 121.2C309.321 113.8 308.071 108.05 305.571 103.95C303.071 99.85 299.021 97.8 293.421 97.8C288.221 97.8 282.821 100.55 277.221 106.05V140.4C279.821 142.6 282.371 144.2 284.871 145.2C287.471 146.1 289.871 146.55 292.071 146.55ZM348.564 189.3C346.564 189.3 344.814 189.15 343.314 188.85C341.814 188.55 340.364 188.2 338.964 187.8L342.114 174.3C342.814 174.5 343.614 174.7 344.514 174.9C345.514 175.2 346.464 175.35 347.364 175.35C351.264 175.35 354.364 174.15 356.664 171.75C359.064 169.45 360.864 166.45 362.064 162.75L363.414 158.1L334.464 85.35H352.014L364.764 121.5C365.864 124.7 366.914 128.1 367.914 131.7C369.014 135.2 370.114 138.7 371.214 142.2H371.814C372.714 138.8 373.614 135.35 374.514 131.85C375.514 128.25 376.464 124.8 377.364 121.5L388.464 85.35H405.114L378.414 162.3C375.314 170.6 371.564 177.15 367.164 181.95C362.764 186.85 356.564 189.3 348.564 189.3ZM488.561 160.8C480.361 160.8 472.911 158.85 466.211 154.95C459.511 151.05 454.161 145.35 450.161 137.85C446.261 130.25 444.311 121.05 444.311 110.25C444.311 99.55 446.311 90.4 450.311 82.8C454.411 75.1 459.861 69.25 466.661 65.25C473.461 61.15 480.961 59.1 489.161 59.1C495.361 59.1 500.861 60.35 505.661 62.85C510.461 65.35 514.411 68.25 517.511 71.55L508.211 82.8C505.711 80.2 502.911 78.15 499.811 76.65C496.811 75.05 493.411 74.25 489.611 74.25C484.311 74.25 479.561 75.7 475.361 78.6C471.261 81.4 468.011 85.45 465.611 90.75C463.311 96.05 462.161 102.4 462.161 109.8C462.161 121 464.611 129.8 469.511 136.2C474.411 142.5 480.961 145.65 489.161 145.65C493.561 145.65 497.461 144.75 500.861 142.95C504.261 141.05 507.361 138.6 510.161 135.6L519.461 146.55C515.461 151.15 510.861 154.7 505.661 157.2C500.561 159.6 494.861 160.8 488.561 160.8ZM534.337 159V85.35H548.587L549.787 98.4H550.387C552.987 93.6 556.137 89.95 559.837 87.45C563.537 84.85 567.337 83.55 571.237 83.55C574.737 83.55 577.537 84.05 579.637 85.05L576.637 100.05C575.337 99.65 574.137 99.35 573.037 99.15C571.937 98.95 570.587 98.85 568.987 98.85C566.087 98.85 563.037 100 559.837 102.3C556.637 104.5 553.887 108.4 551.587 114V159H534.337ZM620.329 160.8C613.529 160.8 607.379 159.3 601.879 156.3C596.379 153.2 592.029 148.8 588.829 143.1C585.629 137.3 584.029 130.35 584.029 122.25C584.029 114.25 585.629 107.35 588.829 101.55C592.129 95.75 596.379 91.3 601.579 88.2C606.779 85.1 612.229 83.55 617.929 83.55C624.629 83.55 630.229 85.05 634.729 88.05C639.229 90.95 642.629 95.05 644.929 100.35C647.229 105.55 648.379 111.6 648.379 118.5C648.379 122.1 648.129 124.9 647.629 126.9H600.829C601.629 133.4 603.979 138.45 607.879 142.05C611.779 145.65 616.679 147.45 622.579 147.45C625.779 147.45 628.729 147 631.429 146.1C634.229 145.1 636.979 143.75 639.679 142.05L645.529 152.85C642.029 155.15 638.129 157.05 633.829 158.55C629.529 160.05 625.029 160.8 620.329 160.8ZM600.679 115.2H633.379C633.379 109.5 632.129 105.05 629.629 101.85C627.129 98.55 623.379 96.9 618.379 96.9C614.079 96.9 610.229 98.5 606.829 101.7C603.529 104.8 601.479 109.3 600.679 115.2ZM680.946 160.8C674.546 160.8 669.296 158.8 665.196 154.8C661.196 150.8 659.196 145.6 659.196 139.2C659.196 131.3 662.646 125.2 669.546 120.9C676.446 116.5 687.446 113.5 702.546 111.9C702.446 108 701.396 104.65 699.396 101.85C697.496 98.95 694.046 97.5 689.046 97.5C685.446 97.5 681.896 98.2 678.396 99.6C674.996 101 671.646 102.7 668.346 104.7L662.046 93.15C666.146 90.55 670.746 88.3 675.846 86.4C681.046 84.5 686.546 83.55 692.346 83.55C701.546 83.55 708.396 86.3 712.896 91.8C717.496 97.2 719.796 105.05 719.796 115.35V159H705.546L704.346 150.9H703.746C700.446 153.7 696.896 156.05 693.096 157.95C689.396 159.85 685.346 160.8 680.946 160.8ZM686.496 147.3C689.496 147.3 692.196 146.6 694.596 145.2C697.096 143.7 699.746 141.7 702.546 139.2V122.7C692.546 124 685.596 125.95 681.696 128.55C677.796 131.05 675.846 134.15 675.846 137.85C675.846 141.15 676.846 143.55 678.846 145.05C680.846 146.55 683.396 147.3 686.496 147.3ZM764.046 160.8C755.546 160.8 749.496 158.35 745.896 153.45C742.396 148.45 740.646 142 740.646 134.1V99H730.146V86.1L741.546 85.35L743.646 65.25H758.046V85.35H776.796V99H758.046V134.1C758.046 142.7 761.496 147 768.396 147C769.696 147 771.046 146.85 772.446 146.55C773.846 146.15 775.046 145.75 776.046 145.35L779.046 158.1C777.046 158.8 774.746 159.4 772.146 159.9C769.646 160.5 766.946 160.8 764.046 160.8ZM820.102 160.8C814.002 160.8 808.302 159.3 803.002 156.3C797.702 153.2 793.402 148.8 790.102 143.1C786.802 137.3 785.152 130.35 785.152 122.25C785.152 114.05 786.802 107.1 790.102 101.4C793.402 95.6 797.702 91.2 803.002 88.2C808.302 85.1 814.002 83.55 820.102 83.55C826.302 83.55 832.052 85.1 837.352 88.2C842.652 91.2 846.952 95.6 850.252 101.4C853.552 107.1 855.202 114.05 855.202 122.25C855.202 130.35 853.552 137.3 850.252 143.1C846.952 148.8 842.652 153.2 837.352 156.3C832.052 159.3 826.302 160.8 820.102 160.8ZM820.102 146.7C825.502 146.7 829.752 144.45 832.852 139.95C835.952 135.45 837.502 129.55 837.502 122.25C837.502 114.85 835.952 108.9 832.852 104.4C829.752 99.9 825.502 97.65 820.102 97.65C814.702 97.65 810.452 99.9 807.352 104.4C804.352 108.9 802.852 114.85 802.852 122.25C802.852 129.55 804.352 135.45 807.352 139.95C810.452 144.45 814.702 146.7 820.102 146.7ZM872.276 159V85.35H886.526L887.726 98.4H888.326C890.926 93.6 894.076 89.95 897.776 87.45C901.476 84.85 905.276 83.55 909.176 83.55C912.676 83.55 915.476 84.05 917.576 85.05L914.576 100.05C913.276 99.65 912.076 99.35 910.976 99.15C909.876 98.95 908.526 98.85 906.926 98.85C904.026 98.85 900.976 100 897.776 102.3C894.576 104.5 891.826 108.4 889.526 114V159H872.276ZM959.763 159V60.9H979.413L996.813 108.9C997.913 112 998.963 115.2 999.963 118.5C1001.06 121.7 1002.11 124.9 1003.11 128.1H1003.71C1004.81 124.9 1005.86 121.7 1006.86 118.5C1007.86 115.2 1008.86 112 1009.86 108.9L1026.81 60.9H1046.61V159H1030.56V114.15C1030.56 111.05 1030.66 107.7 1030.86 104.1C1031.16 100.4 1031.46 96.7 1031.76 93C1032.16 89.3 1032.51 85.95 1032.81 82.95H1032.21L1024.26 105.75L1008.21 149.85H997.863L981.663 105.75L973.863 82.95H973.263C973.563 85.95 973.863 89.3 974.163 93C974.563 96.7 974.863 100.4 975.063 104.1C975.363 107.7 975.513 111.05 975.513 114.15V159H959.763ZM1091.93 160.8C1084.03 160.8 1078.28 158.25 1074.68 153.15C1071.08 148.05 1069.28 140.85 1069.28 131.55V85.35H1086.53V129.3C1086.53 135.4 1087.43 139.7 1089.23 142.2C1091.03 144.7 1093.93 145.95 1097.93 145.95C1101.13 145.95 1103.93 145.15 1106.33 143.55C1108.83 141.95 1111.48 139.35 1114.28 135.75V85.35H1131.53V159H1117.43L1116.08 148.2H1115.63C1112.43 152 1108.93 155.05 1105.13 157.35C1101.33 159.65 1096.93 160.8 1091.93 160.8ZM1173.93 160.8C1168.93 160.8 1163.93 159.85 1158.93 157.95C1153.93 155.95 1149.63 153.5 1146.03 150.6L1154.13 139.5C1157.43 142 1160.73 144 1164.03 145.5C1167.33 147 1170.83 147.75 1174.53 147.75C1178.53 147.75 1181.48 146.9 1183.38 145.2C1185.28 143.5 1186.23 141.4 1186.23 138.9C1186.23 136.8 1185.43 135.1 1183.83 133.8C1182.33 132.4 1180.38 131.2 1177.98 130.2C1175.58 129.1 1173.08 128.05 1170.48 127.05C1167.28 125.85 1164.08 124.4 1160.88 122.7C1157.78 120.9 1155.23 118.65 1153.23 115.95C1151.23 113.15 1150.23 109.7 1150.23 105.6C1150.23 99.1 1152.63 93.8 1157.43 89.7C1162.23 85.6 1168.73 83.55 1176.93 83.55C1182.13 83.55 1186.78 84.45 1190.88 86.25C1194.98 88.05 1198.53 90.1 1201.53 92.4L1193.58 102.9C1190.98 101 1188.33 99.5 1185.63 98.4C1183.03 97.2 1180.28 96.6 1177.38 96.6C1173.68 96.6 1170.93 97.4 1169.13 99C1167.33 100.5 1166.43 102.4 1166.43 104.7C1166.43 107.6 1167.93 109.8 1170.93 111.3C1173.93 112.8 1177.43 114.25 1181.43 115.65C1184.83 116.85 1188.13 118.35 1191.33 120.15C1194.53 121.85 1197.18 124.1 1199.28 126.9C1201.48 129.7 1202.58 133.4 1202.58 138C1202.58 144.3 1200.13 149.7 1195.23 154.2C1190.33 158.6 1183.23 160.8 1173.93 160.8ZM1217.98 159V85.35H1235.23V159H1217.98ZM1226.68 72.45C1223.58 72.45 1221.08 71.55 1219.18 69.75C1217.28 67.95 1216.33 65.55 1216.33 62.55C1216.33 59.65 1217.28 57.3 1219.18 55.5C1221.08 53.7 1223.58 52.8 1226.68 52.8C1229.78 52.8 1232.28 53.7 1234.18 55.5C1236.08 57.3 1237.03 59.65 1237.03 62.55C1237.03 65.55 1236.08 67.95 1234.18 69.75C1232.28 71.55 1229.78 72.45 1226.68 72.45ZM1287.99 160.8C1281.29 160.8 1275.24 159.3 1269.84 156.3C1264.54 153.2 1260.29 148.8 1257.09 143.1C1253.99 137.3 1252.44 130.35 1252.44 122.25C1252.44 114.05 1254.14 107.1 1257.54 101.4C1260.94 95.6 1265.44 91.2 1271.04 88.2C1276.74 85.1 1282.84 83.55 1289.34 83.55C1294.04 83.55 1298.14 84.35 1301.64 85.95C1305.14 87.55 1308.24 89.5 1310.94 91.8L1302.54 103.05C1300.64 101.35 1298.69 100.05 1296.69 99.15C1294.69 98.15 1292.54 97.65 1290.24 97.65C1284.34 97.65 1279.49 99.9 1275.69 104.4C1271.99 108.9 1270.14 114.85 1270.14 122.25C1270.14 129.55 1271.94 135.45 1275.54 139.95C1279.24 144.45 1283.99 146.7 1289.79 146.7C1292.69 146.7 1295.39 146.1 1297.89 144.9C1300.49 143.6 1302.84 142.1 1304.94 140.4L1311.99 151.8C1308.59 154.8 1304.79 157.05 1300.59 158.55C1296.39 160.05 1292.19 160.8 1287.99 160.8Z" fill="#CDD6F4"/>
<path fill-rule="evenodd" clip-rule="evenodd" d="M1362.93 88.6526C1360.58 94.6435 1353.83 99 1346 99C1336.06 99 1328 92.25 1328 84C1328 77.6025 1332.85 72.2198 1339.66 70.125C1341.63 69.5184 1343.77 69.1875 1346 69.1875C1346.98 69.1875 1347.92 69.2723 1348.86 69.4218C1349.89 69.5866 1350.92 69.83 1352 70.125V42.9375L1304 57L1303.81 96.1875C1303.81 97.9106 1303.47 99.5602 1302.83 101.092C1300.42 106.893 1293.82 111 1285.81 111C1275.69 111 1268 104.438 1268 96C1268 89.6025 1272.74 84.2198 1279.5 82.125C1281.45 81.5184 1283.58 81.1875 1285.81 81.1875C1286.84 81.1875 1287.88 81.2812 1288.88 81.4453C1289.89 81.6094 1290.88 81.8438 1291.81 82.125V38.8125C1291.81 36.375 1293.69 33.75 1295.94 33L1355.75 15.375C1356.5 15.1875 1357.44 15 1358 15C1361.19 15 1363.81 17.8125 1364 21L1363.81 84C1363.81 85.6222 1363.5 87.1863 1362.93 88.6526ZM1378.81 84.025C1378.8 102.879 1361.48 114 1346 114C1335.82 114 1324.85 109.283 1318.47 100.72C1315.97 116.965 1300.13 126 1285.81 126C1269.86 126 1253 114.981 1253 96C1253 80.6496 1264.29 70.6413 1276.81 67.3645V38.8125C1276.81 33.903 1278.62 29.6615 1280.81 26.5806C1282.99 23.5173 1286.44 20.3557 1291.19 18.7698L1291.44 18.6863L1351.81 0.898512L1352.13 0.818775C1352.85 0.637091 1355.4 0 1358 0C1370.21 0 1378.39 10.1276 1378.97 20.1192L1379 20.5815L1378.81 84C1378.81 84.0083 1378.81 84.0166 1378.81 84.025Z" fill="#313244"/>
<path d="M1363.81 84C1363.81 92.25 1355.75 99 1346 99C1336.06 99 1328 92.25 1328 84C1328 75.75 1336.06 69.1875 1346 69.1875C1348.06 69.1875 1349.94 69.5625 1352 70.125V42.9375L1304 57L1303.81 96.1875C1303.81 104.438 1295.94 111 1285.81 111C1275.69 111 1268 104.438 1268 96C1268 87.75 1275.88 81.1875 1285.81 81.1875C1287.88 81.1875 1289.94 81.5625 1291.81 82.125V38.8125C1291.81 36.375 1293.69 33.75 1295.94 33L1355.75 15.375C1356.5 15.1875 1357.44 15 1358 15C1361.19 15 1363.81 17.8125 1364 21L1363.81 84Z" fill="#FAB387"/>
<path fill-rule="evenodd" clip-rule="evenodd" d="M109.926 184.653C107.577 190.643 100.833 195 93 195C83.0625 195 75 188.25 75 180C75 173.603 79.8482 168.22 86.6593 166.125C88.6316 165.518 90.7685 165.188 93 165.188C93.9809 165.188 94.9194 165.272 95.8558 165.422C96.8884 165.587 97.9184 165.83 99 166.125V138.938L51 153L50.8125 192.188C50.8125 193.911 50.469 195.56 49.8331 197.092C47.4247 202.893 40.8227 207 32.8125 207C22.6875 207 15 200.438 15 192C15 185.603 19.7354 180.22 26.4959 178.125C28.4536 177.518 30.581 177.188 32.8125 177.188C33.8438 177.188 34.875 177.281 35.8829 177.445C36.8907 177.609 37.875 177.844 38.8125 178.125V134.812C38.8125 132.375 40.6875 129.75 42.9375 129L102.75 111.375C103.5 111.188 104.438 111 105 111C108.188 111 110.812 113.812 111 117L110.812 180C110.812 181.622 110.501 183.186 109.926 184.653ZM125.812 180.025C125.797 198.879 108.481 210 93 210C82.8244 210 71.8512 205.283 65.4711 196.72C62.9668 212.965 47.1316 222 32.8125 222C16.8599 222 0 210.981 0 192C0 176.65 11.2888 166.641 23.8125 163.365V134.812C23.8125 129.903 25.6161 125.661 27.8069 122.581C29.9853 119.517 33.4363 116.356 38.1941 114.77L38.4445 114.686L98.8094 96.8985L99.1283 96.8188C99.8549 96.6371 102.403 96 105 96C117.209 96 125.386 106.128 125.974 116.119L126.001 116.582L125.812 180C125.812 180.008 125.812 180.017 125.812 180.025Z" fill="#313244"/>
<path d="M110.812 180C110.812 188.25 102.75 195 93 195C83.0625 195 75 188.25 75 180C75 171.75 83.0625 165.188 93 165.188C95.0625 165.188 96.9375 165.562 99 166.125V138.938L51 153L50.8125 192.188C50.8125 200.438 42.9375 207 32.8125 207C22.6875 207 15 200.438 15 192C15 183.75 22.875 177.188 32.8125 177.188C34.875 177.188 36.9375 177.562 38.8125 178.125V134.812C38.8125 132.375 40.6875 129.75 42.9375 129L102.75 111.375C103.5 111.188 104.438 111 105 111C108.188 111 110.812 113.812 111 117L110.812 180Z" fill="#89B4FA"/>
</svg>
