<svg width="1371" height="235" viewBox="0 0 1371 235" fill="none" xmlns="http://www.w3.org/2000/svg">
<path fill-rule="evenodd" clip-rule="evenodd" d="M1251.32 77.3C1254.57 77.3 1257.5 77.6898 1260.1 78.4693C1260.04 79.2959 1260 80.1396 1260 81C1260 84.3794 1260.53 87.5064 1261.5 90.3638C1260.87 89.983 1260.22 89.6284 1259.57 89.3C1257.27 88.1 1254.67 87.5 1251.77 87.5C1247.37 87.5 1243.42 88.7 1239.92 91.1C1236.52 93.4 1233.82 96.7 1231.82 101C1229.92 105.2 1228.97 110.1 1228.97 115.7C1228.97 124 1231.02 130.75 1235.12 135.95C1239.32 141.05 1244.77 143.6 1251.47 143.6C1254.87 143.6 1258.02 142.9 1260.92 141.5C1263.82 140 1266.37 138.25 1268.57 136.25L1273.97 144.5C1270.67 147.4 1267.02 149.7 1263.02 151.4C1259.02 153 1254.82 153.8 1250.42 153.8C1244.02 153.8 1238.22 152.3 1233.02 149.3C1227.82 146.3 1223.72 141.95 1220.72 136.25C1217.72 130.55 1216.22 123.7 1216.22 115.7C1216.22 107.5 1217.82 100.55 1221.02 94.85C1224.32 89.15 1228.62 84.8 1233.92 81.8C1239.32 78.8 1245.12 77.3 1251.32 77.3ZM95.1079 151.199C92.5903 150.234 90.1876 149.001 87.9 147.5C81.9854 143.557 77.2607 138.071 73.7259 131.044L85.9601 127.438C88.1855 131.733 91.0322 135.22 94.5 137.9C98.4283 140.846 102.915 142.477 107.959 142.793L107.926 153.763C103.704 153.594 99.7285 152.849 96 151.528V150.938L95.1079 151.199ZM122.932 151.782C126.043 150.75 128.966 149.323 131.7 147.5C138 143.3 142.95 137.35 146.55 129.65C150.15 121.95 151.95 112.85 151.95 102.35C151.95 91.85 150.15 82.85 146.55 75.35C142.95 67.75 138 61.95 131.7 57.95C125.4 53.85 118.1 51.8 109.8 51.8C101.6 51.8 94.3 53.85 87.9 57.95C81.6 61.95 76.65 67.75 73.05 75.35C69.55 82.85 67.8 91.85 67.8 102.35C67.8 107.496 68.2204 112.307 69.0612 116.78L81.4804 113.121C80.9601 109.758 80.7 106.168 80.7 102.35C80.7 90.15 83.35 80.5 88.65 73.4C93.95 66.3 101 62.75 109.8 62.75C118.6 62.75 125.65 66.3 130.95 73.4C136.25 80.5 138.9 90.15 138.9 102.35C138.9 110.55 137.7 117.7 135.3 123.8C132.9 129.8 129.5 134.5 125.1 137.9C124.41 138.429 123.7 138.916 122.969 139.361L122.932 151.782ZM204.159 153.8C200.759 153.8 197.209 153 193.509 151.4C189.909 149.7 186.509 147.4 183.309 144.5H182.859L181.809 152H171.909V45.2H184.209V74.3L183.909 87.5C187.209 84.6 190.809 82.2 194.709 80.3C198.709 78.3 202.709 77.3 206.709 77.3C216.209 77.3 223.409 80.65 228.309 87.35C233.209 94.05 235.659 103.05 235.659 114.35C235.659 122.65 234.159 129.75 231.159 135.65C228.259 141.55 224.409 146.05 219.609 149.15C214.909 152.25 209.759 153.8 204.159 153.8ZM202.059 143.45C208.059 143.45 213.009 140.9 216.909 135.8C220.909 130.6 222.909 123.5 222.909 114.5C222.909 106.5 221.409 100.05 218.409 95.15C215.509 90.15 210.609 87.65 203.709 87.65C200.609 87.65 197.459 88.5 194.259 90.2C191.059 91.9 187.709 94.35 184.209 97.55V135.8C187.409 138.6 190.559 140.6 193.659 141.8C196.859 142.9 199.659 143.45 202.059 143.45ZM287.07 153.8C283.67 153.8 280.12 153 276.42 151.4C272.82 149.7 269.42 147.4 266.22 144.5H265.77L264.72 152H254.82V45.2H267.12V74.3L266.82 87.5C270.12 84.6 273.72 82.2 277.62 80.3C281.62 78.3 285.62 77.3 289.62 77.3C299.12 77.3 306.32 80.65 311.22 87.35C316.12 94.05 318.57 103.05 318.57 114.35C318.57 122.65 317.07 129.75 314.07 135.65C311.17 141.55 307.32 146.05 302.52 149.15C297.82 152.25 292.67 153.8 287.07 153.8ZM284.97 143.45C290.97 143.45 295.92 140.9 299.82 135.8C303.82 130.6 305.82 123.5 305.82 114.5C305.82 106.5 304.32 100.05 301.32 95.15C298.42 90.15 293.52 87.65 286.62 87.65C283.52 87.65 280.37 88.5 277.17 90.2C273.97 91.9 270.62 94.35 267.12 97.55V135.8C270.32 138.6 273.47 140.6 276.57 141.8C279.77 142.9 282.57 143.45 284.97 143.45ZM338.344 183.35C336.744 183.35 335.194 183.2 333.694 182.9C332.294 182.6 330.994 182.25 329.794 181.85L332.194 172.1C332.994 172.3 333.894 172.5 334.894 172.7C335.894 173 336.844 173.15 337.744 173.15C341.844 173.15 345.244 171.65 347.944 168.65C350.644 165.75 352.744 162.05 354.244 157.55L355.894 152.15L326.644 79.1H339.394L354.244 119.45C355.344 122.55 356.494 125.9 357.694 129.5C358.994 133.1 360.194 136.6 361.294 140H361.894C362.994 136.7 364.044 133.25 365.044 129.65C366.044 126.05 367.044 122.65 368.044 119.45L381.094 79.1H393.094L365.644 158C363.944 162.8 361.894 167.1 359.494 170.9C357.194 174.7 354.294 177.7 350.794 179.9C347.394 182.2 343.244 183.35 338.344 183.35ZM475.593 153.8C467.393 153.8 460.043 151.8 453.543 147.8C447.143 143.7 442.043 137.85 438.243 130.25C434.543 122.65 432.693 113.5 432.693 102.8C432.693 92.2 434.593 83.1 438.393 75.5C442.193 67.9 447.393 62.05 453.993 57.95C460.593 53.85 468.043 51.8 476.343 51.8C482.343 51.8 487.643 53.05 492.243 55.55C496.843 57.95 500.543 60.75 503.343 63.95L496.593 72.05C493.993 69.25 491.043 67 487.743 65.3C484.443 63.6 480.693 62.75 476.493 62.75C470.293 62.75 464.843 64.4 460.143 67.7C455.543 70.9 451.943 75.45 449.343 81.35C446.843 87.25 445.593 94.3 445.593 102.5C445.593 110.7 446.843 117.85 449.343 123.95C451.843 129.95 455.343 134.6 459.843 137.9C464.443 141.2 469.843 142.85 476.043 142.85C480.743 142.85 484.943 141.85 488.643 139.85C492.343 137.85 495.743 135.15 498.843 131.75L505.743 139.55C501.843 144.05 497.443 147.55 492.543 150.05C487.643 152.55 481.993 153.8 475.593 153.8ZM522.886 152V79.1H533.086L534.136 92.3H534.586C537.086 87.7 540.136 84.05 543.736 81.35C547.336 78.65 551.186 77.3 555.286 77.3C558.186 77.3 560.786 77.8 563.086 78.8L560.686 89.6C559.486 89.2 558.386 88.9 557.386 88.7C556.386 88.5 555.136 88.4 553.636 88.4C550.536 88.4 547.286 89.65 543.886 92.15C540.586 94.65 537.686 99 535.186 105.2V152H522.886ZM602.973 153.8C596.473 153.8 590.573 152.3 585.273 149.3C579.973 146.2 575.773 141.8 572.673 136.1C569.573 130.4 568.023 123.6 568.023 115.7C568.023 107.7 569.573 100.85 572.673 95.15C575.873 89.45 579.973 85.05 584.973 81.95C589.973 78.85 595.223 77.3 600.723 77.3C610.023 77.3 617.173 80.4 622.173 86.6C627.273 92.8 629.823 101.1 629.823 111.5C629.823 112.8 629.773 114.1 629.673 115.4C629.673 116.6 629.573 117.65 629.373 118.55H580.173C580.673 126.25 583.073 132.4 587.373 137C591.773 141.6 597.473 143.9 604.473 143.9C607.973 143.9 611.173 143.4 614.073 142.4C617.073 141.3 619.923 139.9 622.623 138.2L626.973 146.3C623.873 148.3 620.323 150.05 616.323 151.55C612.423 153.05 607.973 153.8 602.973 153.8ZM580.023 109.7H619.023C619.023 102.3 617.423 96.7 614.223 92.9C611.123 89 606.723 87.05 601.023 87.05C595.923 87.05 591.323 89.05 587.223 93.05C583.223 96.95 580.823 102.5 580.023 109.7ZM662.586 153.8C656.486 153.8 651.386 152 647.286 148.4C643.286 144.7 641.286 139.6 641.286 133.1C641.286 125.1 644.836 119 651.936 114.8C659.136 110.5 670.486 107.5 685.986 105.8C685.986 102.7 685.536 99.75 684.636 96.95C683.836 94.15 682.336 91.9 680.136 90.2C678.036 88.4 674.986 87.5 670.986 87.5C666.786 87.5 662.836 88.3 659.136 89.9C655.436 91.5 652.136 93.3 649.236 95.3L644.436 86.75C647.836 84.55 651.986 82.45 656.886 80.45C661.886 78.35 667.286 77.3 673.086 77.3C681.986 77.3 688.436 80.05 692.436 85.55C696.436 90.95 698.436 98.2 698.436 107.3V152H688.236L687.186 143.3H686.736C683.336 146.1 679.586 148.55 675.486 150.65C671.486 152.75 667.186 153.8 662.586 153.8ZM666.186 143.9C669.686 143.9 672.986 143.05 676.086 141.35C679.186 139.65 682.486 137.25 685.986 134.15V113.9C673.886 115.4 665.386 117.65 660.486 120.65C655.686 123.65 653.286 127.5 653.286 132.2C653.286 136.3 654.536 139.3 657.036 141.2C659.536 143 662.586 143.9 666.186 143.9ZM742.271 153.8C734.471 153.8 729.021 151.55 725.921 147.05C722.921 142.55 721.421 136.7 721.421 129.5V89.15H710.621V79.85L722.021 79.1L723.521 58.7H733.871V79.1H753.521V89.15H733.871V129.65C733.871 134.15 734.671 137.65 736.271 140.15C737.971 142.55 740.921 143.75 745.121 143.75C746.421 143.75 747.821 143.55 749.321 143.15L753.371 141.8L755.771 151.1C753.771 151.8 751.571 152.4 749.171 152.9C746.871 153.5 744.571 153.8 742.271 153.8ZM796.304 153.8C790.404 153.8 784.854 152.3 779.654 149.3C774.554 146.3 770.404 141.95 767.204 136.25C764.104 130.55 762.554 123.7 762.554 115.7C762.554 107.5 764.104 100.55 767.204 94.85C770.404 89.15 774.554 84.8 779.654 81.8C784.854 78.8 790.404 77.3 796.304 77.3C802.304 77.3 807.854 78.8 812.954 81.8C818.054 84.8 822.154 89.15 825.254 94.85C828.454 100.55 830.054 107.5 830.054 115.7C830.054 123.7 828.454 130.55 825.254 136.25C822.154 141.95 818.054 146.3 812.954 149.3C807.854 152.3 802.304 153.8 796.304 153.8ZM796.304 143.6C802.604 143.6 807.654 141.05 811.454 135.95C815.354 130.75 817.304 124 817.304 115.7C817.304 107.3 815.354 100.5 811.454 95.3C807.654 90.1 802.604 87.5 796.304 87.5C790.104 87.5 785.054 90.1 781.154 95.3C777.254 100.5 775.304 107.3 775.304 115.7C775.304 124 777.254 130.75 781.154 135.95C785.054 141.05 790.104 143.6 796.304 143.6ZM849.253 152V79.1H859.453L860.503 92.3H860.953C863.453 87.7 866.503 84.05 870.103 81.35C873.703 78.65 877.553 77.3 881.653 77.3C884.553 77.3 887.153 77.8 889.453 78.8L887.053 89.6C885.853 89.2 884.753 88.9 883.753 88.7C882.753 88.5 881.503 88.4 880.003 88.4C876.903 88.4 873.653 89.65 870.253 92.15C866.953 94.65 864.053 99 861.553 105.2V152H849.253ZM932.484 53.6H947.484L966.384 106.1C967.584 109.5 968.734 112.95 969.834 116.45L973.434 126.65H974.034C975.234 123.25 976.334 119.85 977.334 116.45C978.434 112.95 979.584 109.5 980.784 106.1L999.384 53.6H1014.53V152H1002.83V97.85C1002.83 93.45 1003.03 88.6 1003.43 83.3C1003.83 77.9 1004.18 73.05 1004.48 68.75H1003.88L996.084 91.1L977.484 142.1H969.234L950.634 91.1L942.834 68.75H942.234C942.534 73.05 942.834 77.9 943.134 83.3C943.534 88.6 943.734 93.45 943.734 97.85V152H932.484V53.6ZM1061.57 153.8C1053.87 153.8 1048.22 151.4 1044.62 146.6C1041.02 141.7 1039.22 134.6 1039.22 125.3V79.1H1051.67V123.65C1051.67 130.45 1052.72 135.4 1054.82 138.5C1057.02 141.6 1060.52 143.15 1065.32 143.15C1069.12 143.15 1072.47 142.2 1075.37 140.3C1078.37 138.3 1081.57 135.15 1084.97 130.85V79.1H1097.27V152H1087.07L1086.02 140.6H1085.57C1082.17 144.6 1078.57 147.8 1074.77 150.2C1070.97 152.6 1066.57 153.8 1061.57 153.8ZM1140.91 153.8C1135.71 153.8 1130.76 152.85 1126.06 150.95C1121.36 148.95 1117.26 146.55 1113.76 143.75L1119.91 135.5C1123.11 138 1126.41 140.1 1129.81 141.8C1133.21 143.4 1137.06 144.2 1141.36 144.2C1146.16 144.2 1149.76 143.1 1152.16 140.9C1154.56 138.6 1155.76 135.9 1155.76 132.8C1155.76 130.3 1154.91 128.2 1153.21 126.5C1151.61 124.8 1149.51 123.4 1146.91 122.3C1144.41 121.1 1141.81 120 1139.11 119C1135.71 117.7 1132.36 116.25 1129.06 114.65C1125.76 112.95 1123.06 110.8 1120.96 108.2C1118.86 105.5 1117.81 102.1 1117.81 98C1117.81 92.1 1120.01 87.2 1124.41 83.3C1128.91 79.3 1135.11 77.3 1143.01 77.3C1147.51 77.3 1151.71 78.1 1155.61 79.7C1159.51 81.3 1162.86 83.25 1165.66 85.55L1159.66 93.35C1157.16 91.45 1154.56 89.9 1151.86 88.7C1149.16 87.5 1146.21 86.9 1143.01 86.9C1138.41 86.9 1135.01 87.95 1132.81 90.05C1130.71 92.15 1129.66 94.6 1129.66 97.4C1129.66 99.7 1130.41 101.6 1131.91 103.1C1133.41 104.5 1135.36 105.75 1137.76 106.85C1140.16 107.85 1142.71 108.9 1145.41 110C1148.91 111.3 1152.36 112.8 1155.76 114.5C1159.16 116.1 1161.96 118.3 1164.16 121.1C1166.46 123.8 1167.61 127.45 1167.61 132.05C1167.61 135.95 1166.56 139.55 1164.46 142.85C1162.46 146.15 1159.46 148.8 1155.46 150.8C1151.56 152.8 1146.71 153.8 1140.91 153.8ZM1184.7 152V79.1H1197V152H1184.7ZM1191 64.1C1188.6 64.1 1186.6 63.4 1185 62C1183.5 60.5 1182.75 58.5 1182.75 56C1182.75 53.6 1183.5 51.65 1185 50.15C1186.6 48.65 1188.6 47.9 1191 47.9C1193.4 47.9 1195.35 48.65 1196.85 50.15C1198.45 51.65 1199.25 53.6 1199.25 56C1199.25 58.5 1198.45 60.5 1196.85 62C1195.35 63.4 1193.4 64.1 1191 64.1Z" fill="black"/>
<path d="M1370.81 69C1370.81 77.25 1362.75 84 1353 84C1343.06 84 1335 77.25 1335 69C1335 60.75 1343.06 54.1875 1353 54.1875C1355.06 54.1875 1356.94 54.5625 1359 55.125V27.9375L1311 42L1310.81 81.1875C1310.81 89.4375 1302.94 96 1292.81 96C1282.69 96 1275 89.4375 1275 81C1275 72.75 1282.88 66.1875 1292.81 66.1875C1294.88 66.1875 1296.94 66.5625 1298.81 67.125V23.8125C1298.81 21.375 1300.69 18.75 1302.94 18L1362.75 0.375C1363.5 0.1875 1364.44 0 1365 0C1368.19 0 1370.81 2.8125 1371 6L1370.81 69Z" fill="#FAB387"/>
<path d="M107.812 192C107.812 200.25 99.75 207 90 207C80.0625 207 72 200.25 72 192C72 183.75 80.0625 177.188 90 177.188C92.0625 177.188 93.9375 177.562 96 178.125V150.938L48 165L47.8125 204.188C47.8125 212.438 39.9375 219 29.8125 219C19.6875 219 12 212.438 12 204C12 195.75 19.875 189.188 29.8125 189.188C31.875 189.188 33.9375 189.562 35.8125 190.125V146.812C35.8125 144.375 37.6875 141.75 39.9375 141L99.75 123.375C100.5 123.188 101.438 123 102 123C105.188 123 107.812 125.812 108 129L107.812 192Z" fill="#89B4FA"/>
</svg>
